# xmcd
#
# Track frame offsets:
#	150
#	18891
#	31630
#	41445
#	55902
#	74043
#	88474
#	103465
#	118129
#	141079
#	159743
#
# Disc length: 2363 seconds
# Revision: 0
# Processed by: cddbd v1.5.2PL0 Copyright (c) Steve Scherf et al.
# Submitted via: dBpowerAMP V12.0
#
DISCID=9d09390b
DTITLE=Wendy Burch Steel - Open Wings
DYEAR=2012
DGENRE=Country
TTITLE0=If I Had Wings
TTITLE1=Your Sweet Hand
TTITLE2=Paul And Silas
TTITLE3=There is a Time
TTITLE4=Walls of Time
TTITLE5=Happy Song Blues
TTITLE6=Sea of Heartbreak
TTITLE7=Jonny's Waltz
TTITLE8=If It Hadn't Been For Love
TTITLE9=Beau Fleuve (Beautiful River)
TTITLE10=Leah's Lullaby
EXTD=
EXTT0=
EXTT1=
EXTT2=
EXTT3=
EXTT4=
EXTT5=
EXTT6=
EXTT7=
EXTT8=
EXTT9=
EXTT10=
PLAYORDER=
